<svg width="549" height="144" viewBox="0 0 549 144" fill="none" xmlns="http://www.w3.org/2000/svg">
<path fill-rule="evenodd" clip-rule="evenodd" d="M70.8387 0C31.7156 0 0 32.2355 0 72C0 93.3012 9.10083 112.442 23.566 125.624L10.3496 135.93C6.9932 138.547 8.81415 144 13.0445 144H66.5844C66.8961 144 67.1927 143.973 67.4743 143.92C68.5891 143.973 69.711 144 70.8387 144C109.962 144 141.677 111.765 141.677 72C141.677 32.2355 109.962 0 70.8387 0Z" fill="#D2D5F9"/>
<path d="M39.8468 81C44.7372 81 48.7016 76.9706 48.7016 72C48.7016 67.0294 44.7372 63 39.8468 63C34.9564 63 30.9919 67.0294 30.9919 72C30.9919 76.9706 34.9564 81 39.8468 81Z" fill="#002DE3"/>
<path d="M70.8387 81C75.7291 81 79.6936 76.9706 79.6936 72C79.6936 67.0294 75.7291 63 70.8387 63C65.9483 63 61.9839 67.0294 61.9839 72C61.9839 76.9706 65.9483 81 70.8387 81Z" fill="#002DE3"/>
<path d="M101.831 81C106.721 81 110.686 76.9706 110.686 72C110.686 67.0294 106.721 63 101.831 63C96.9403 63 92.9758 67.0294 92.9758 72C92.9758 76.9706 96.9403 81 101.831 81Z" fill="#002DE3"/>
<path d="M220.131 113.472C212.481 113.472 205.786 111.852 200.048 108.612C194.381 105.3 190.025 100.692 186.979 94.7881C183.933 88.8121 182.41 81.8641 182.41 73.9441C182.41 66.0961 183.933 59.2201 186.979 53.3161C190.025 47.3401 194.381 42.7321 200.048 39.4921C205.786 36.2521 212.481 34.6321 220.131 34.6321C225.161 34.6321 229.942 35.4241 234.476 37.0081C239.081 38.5201 242.835 40.6801 245.739 43.4881L240.533 55.5841C237.133 52.9921 233.803 51.1201 230.545 49.9681C227.357 48.7441 223.992 48.1321 220.45 48.1321C213.65 48.1321 208.443 50.3281 204.83 54.7201C201.217 59.1121 199.411 65.5201 199.411 73.9441C199.411 82.4401 201.217 88.9201 204.83 93.3841C208.443 97.7761 213.65 99.9721 220.45 99.9721C223.992 99.9721 227.357 99.3961 230.545 98.2441C233.803 97.0201 237.133 95.1121 240.533 92.5201L245.739 104.616C242.835 107.424 239.081 109.62 234.476 111.204C229.942 112.716 225.161 113.472 220.131 113.472ZM289.578 56.3401C302.329 56.3401 308.705 64.0081 308.705 79.3441V112.5H292.66V80.1001C292.66 76.2841 291.952 73.5121 290.535 71.7841C289.189 69.9841 287.028 69.0841 284.053 69.0841C280.511 69.0841 277.678 70.2361 275.552 72.5401C273.427 74.8441 272.365 77.9401 272.365 81.8281V112.5H256.32V33.0121H272.365V65.1961C274.277 62.3161 276.721 60.1201 279.696 58.6081C282.672 57.0961 285.966 56.3401 289.578 56.3401ZM375.465 57.7441V112.5H359.632V104.4C358.003 107.208 355.701 109.404 352.725 110.988C349.75 112.572 346.385 113.364 342.631 113.364C337.955 113.364 333.811 112.212 330.199 109.908C326.657 107.604 323.859 104.328 321.804 100.08C319.821 95.7601 318.829 90.7921 318.829 85.1761C318.829 79.5601 319.821 74.5561 321.804 70.1641C323.859 65.7721 326.692 62.3881 330.305 60.0121C333.918 57.5641 338.026 56.3401 342.631 56.3401C346.385 56.3401 349.75 57.1681 352.725 58.8241C355.701 60.4801 358.003 62.7121 359.632 65.5201V57.7441H375.465ZM347.306 100.944C351.273 100.944 354.319 99.5761 356.444 96.8401C358.57 94.1041 359.632 90.1441 359.632 84.9601C359.632 79.7761 358.57 75.8161 356.444 73.0801C354.319 70.2721 351.273 68.8681 347.306 68.8681C343.339 68.8681 340.258 70.3081 338.062 73.1881C335.866 76.0681 334.768 80.0641 334.768 85.1761C334.768 90.2881 335.83 94.2121 337.955 96.9481C340.151 99.6121 343.268 100.944 347.306 100.944ZM408.605 69.9481V91.2241C408.605 94.2481 409.384 96.4801 410.942 97.9201C412.501 99.2881 414.52 99.9721 416.999 99.9721C418.558 99.9721 420.329 99.7201 422.312 99.2161V111.852C419.762 112.86 416.68 113.364 413.068 113.364C406.409 113.364 401.308 111.456 397.766 107.64C394.295 103.824 392.56 98.4601 392.56 91.5481V69.9481H382.359V57.7441H392.56V44.8921L408.605 39.6001V57.7441H422.312V69.9481H408.605ZM478.892 86.4721H443.402C443.685 91.5841 444.995 95.3281 447.333 97.7041C449.671 100.008 453.142 101.16 457.746 101.16C460.509 101.16 463.272 100.692 466.035 99.7561C468.797 98.8201 471.347 97.4521 473.685 95.6521L477.935 106.668C475.385 108.756 472.198 110.412 468.372 111.636C464.618 112.788 460.828 113.364 457.003 113.364C447.935 113.364 440.817 110.844 435.646 105.804C430.475 100.692 427.889 93.7441 427.889 84.9601C427.889 79.4161 428.987 74.4841 431.183 70.1641C433.45 65.7721 436.602 62.3881 440.64 60.0121C444.677 57.5641 449.246 56.3401 454.346 56.3401C461.926 56.3401 467.912 58.8601 472.304 63.9001C476.696 68.8681 478.892 75.6001 478.892 84.0961V86.4721ZM454.771 67.7881C451.725 67.7881 449.246 68.6881 447.333 70.4881C445.491 72.2881 444.287 74.9161 443.72 78.3721H465.078C464.228 71.3161 460.792 67.7881 454.771 67.7881ZM514.683 113.364C508.945 113.364 503.916 112.212 499.594 109.908C495.344 107.604 492.05 104.292 489.712 99.9721C487.446 95.6521 486.312 90.6121 486.312 84.8521C486.312 79.0921 487.446 74.0521 489.712 69.7321C492.05 65.4121 495.344 62.1001 499.594 59.7961C503.916 57.4921 508.945 56.3401 514.683 56.3401C520.35 56.3401 525.309 57.4921 529.559 59.7961C533.809 62.1001 537.068 65.4121 539.335 69.7321C541.673 74.0521 542.841 79.0921 542.841 84.8521C542.841 90.6121 541.673 95.6521 539.335 99.9721C537.068 104.292 533.809 107.604 529.559 109.908C525.309 112.212 520.35 113.364 514.683 113.364ZM514.683 100.944C518.65 100.944 521.661 99.6121 523.715 96.9481C525.84 94.2841 526.903 90.2521 526.903 84.8521C526.903 79.5241 525.84 75.5281 523.715 72.8641C521.661 70.1281 518.65 68.7601 514.683 68.7601C510.645 68.7601 507.564 70.1281 505.439 72.8641C503.313 75.5281 502.251 79.5241 502.251 84.8521C502.251 95.5801 506.395 100.944 514.683 100.944Z" fill="#0F1828"/>
</svg>
